<svg width="1440" height="1209" viewBox="0 0 1440 1209" fill="none" xmlns="http://www.w3.org/2000/svg">
<path d="M1018.42 -230C1018.42 -230 684.45 -57.9878 1160.9 263.504C1637.35 584.996 643 236.727 438.776 679.994C345.849 881.674 153.744 930.174 -70.3526 835.468" stroke="#74C8DA" stroke-width="1.6132" stroke-miterlimit="10"/>
<path opacity="0.9722" d="M1032.67 -226.618C1032.67 -215.796 681.912 -53.797 1147.38 266.276C1612.85 586.348 659.604 251.886 451.747 685.338C355.816 885.387 154.86 928.344 -67.8761 829.287" stroke="#71C7D7" stroke-width="1.6132" stroke-miterlimit="10"/>
<path opacity="0.9444" d="M1046.92 -223.223C1046.92 -201.592 679.355 -49.5795 1133.88 269.061C1588.41 587.701 676.046 267.071 464.738 690.696C365.742 889.153 155.977 926.54 -65.3794 823.12" stroke="#6BC5D4" stroke-width="1.6132" stroke-miterlimit="10"/>
<path opacity="0.9167" d="M1061.17 -219.841C1061.17 -187.388 676.817 -45.3886 1120.36 271.833C1563.91 589.054 692.305 282.23 477.709 696.041C375.607 892.907 157.093 924.723 -62.903 816.954" stroke="#69C4D0" stroke-width="1.6132" stroke-miterlimit="10"/>
<path opacity="0.8889" d="M1075.4 -216.459C1075.4 -173.198 674.239 -41.1846 1106.84 274.604C1539.45 590.393 708.382 297.402 490.68 701.399C385.432 896.713 158.189 922.919 -60.4468 810.786" stroke="#60C1CC" stroke-width="1.6132" stroke-miterlimit="10"/>
<path opacity="0.8611" d="M1089.65 -213.077C1089.65 -158.994 671.682 -36.9937 1093.32 277.376C1514.97 591.746 724.255 312.574 503.651 706.743C395.195 900.506 159.306 921.102 -57.9703 804.619" stroke="#59BFC9" stroke-width="1.6132" stroke-miterlimit="10"/>
<path opacity="0.8333" d="M1103.9 -209.695C1103.9 -144.803 669.145 -32.7893 1079.83 280.148C1490.51 593.086 739.966 327.733 516.641 712.088C404.938 904.326 160.422 919.285 -55.4736 798.439" stroke="#52BEC5" stroke-width="1.6132" stroke-miterlimit="10"/>
<path opacity="0.8056" d="M1118.15 -206.313C1118.15 -130.599 666.587 -28.5985 1066.31 282.92C1466.03 594.438 755.474 342.879 529.612 717.433C414.601 908.158 161.538 917.468 -53.0176 792.259" stroke="#49BBC1" stroke-width="1.6132" stroke-miterlimit="10"/>
<path opacity="0.7778" d="M1132.4 -202.932C1132.4 -116.395 664.029 -24.3944 1052.81 285.692C1441.59 595.778 770.779 358.024 542.603 722.778C424.222 911.991 162.655 915.651 -50.5208 786.092" stroke="#3DB9BD" stroke-width="1.6132" stroke-miterlimit="10"/>
<path opacity="0.75" d="M1146.65 -199.55C1146.65 -102.204 661.492 -20.2036 1039.29 288.464C1417.09 597.131 785.882 373.143 555.574 728.122C433.783 915.85 163.771 913.848 -48.0444 779.912" stroke="#33B7B9" stroke-width="1.6132" stroke-miterlimit="10"/>
<path opacity="0.7222" d="M1160.9 -196.155C1160.9 -87.9871 658.935 -15.986 1025.79 291.249C1392.65 598.484 800.801 388.263 568.565 733.494C443.262 919.737 164.888 912.058 -45.5477 773.772" stroke="#20B4B5" stroke-width="1.6132" stroke-miterlimit="10"/>
<path opacity="0.6944" d="M1175.15 -192.773C1175.15 -73.7965 656.397 -11.7952 1012.27 294.02C1368.15 599.836 815.497 403.355 581.536 738.838C452.681 923.609 166.004 910.24 -43.0915 767.591" stroke="#0AB2B1" stroke-width="1.6132" stroke-miterlimit="10"/>
<path opacity="0.6667" d="M1189.4 -189.391C1189.4 -59.5926 653.839 -7.5911 998.773 296.792C1343.71 601.175 830.011 418.408 594.527 744.183C462.038 927.481 167.12 908.423 -40.5948 761.411" stroke="#0AABAA" stroke-width="1.6132" stroke-miterlimit="10"/>
<path opacity="0.6389" d="M1203.63 -186.009C1203.63 -45.3887 651.262 -3.40027 985.234 299.564C1319.21 602.528 844.261 433.434 607.478 749.528C471.274 931.354 168.217 906.607 -38.1386 755.244" stroke="#0CA3A4" stroke-width="1.6132" stroke-miterlimit="10"/>
<path opacity="0.6111" d="M1217.88 -182.627C1217.88 -31.1979 648.724 0.80405 971.735 302.336C1294.75 603.868 858.347 448.42 620.468 754.873C480.469 935.227 169.333 904.79 -35.642 749.064" stroke="#179D9D" stroke-width="1.6132" stroke-miterlimit="10"/>
<path opacity="0.5833" d="M1232.13 -179.245C1232.13 -16.994 646.167 4.99491 958.217 305.108C1270.27 605.221 872.211 463.38 633.439 760.23C489.563 939.099 170.449 902.986 -33.1859 742.897" stroke="#119596" stroke-width="1.6132" stroke-miterlimit="10"/>
<path opacity="0.5556" d="M1246.37 -175.863C1246.37 -2.80336 643.609 9.19902 944.718 307.88C1245.83 606.56 885.893 478.287 646.43 765.575C498.576 942.959 171.566 901.169 -30.6891 736.73" stroke="#078F8F" stroke-width="1.6132" stroke-miterlimit="10"/>
<path opacity="0.5278" d="M1260.62 -172.481C1260.62 11.4005 641.072 13.3899 931.199 310.651C1221.33 607.913 899.351 493.154 659.401 770.92C507.467 946.791 172.682 899.352 -28.2126 730.55" stroke="#128888" stroke-width="1.6132" stroke-miterlimit="10"/>
<path opacity="0.5" d="M1274.87 -169.086C1274.87 25.6046 638.514 17.6074 917.701 313.437C1196.89 609.266 912.626 507.968 672.392 776.278C516.296 950.624 173.799 897.549 -25.716 724.396" stroke="#0B8182" stroke-width="1.6132" stroke-miterlimit="10"/>
<path opacity="0.4722" d="M1289.12 -165.704C1289.12 39.8085 635.977 21.7982 904.182 316.208C1172.39 610.618 925.658 522.729 685.363 781.623C524.984 954.404 174.915 895.732 -23.2598 718.216" stroke="#0A7A79" stroke-width="1.6132" stroke-miterlimit="10"/>
<path opacity="0.4444" d="M1303.37 -162.323C1303.37 54.0123 633.419 26.0023 890.683 318.98C1147.95 611.958 938.547 537.41 698.354 786.967C533.591 958.157 176.031 893.915 -20.7631 712.035" stroke="#117272" stroke-width="1.6132" stroke-miterlimit="10"/>
<path opacity="0.4167" d="M1317.6 -158.941C1317.6 68.203 630.841 30.1932 877.144 321.752C1123.45 613.311 951.173 552.025 711.305 792.325C542.035 961.884 177.128 892.111 -18.3069 705.881" stroke="#106C6C" stroke-width="1.6132" stroke-miterlimit="10"/>
<path opacity="0.3889" d="M1331.85 -155.559C1331.85 82.407 628.304 34.3975 863.646 324.524C1098.99 614.65 963.677 566.574 724.296 797.67C550.398 965.558 178.244 890.294 -15.8306 699.701" stroke="#106464" stroke-width="1.6132" stroke-miterlimit="10"/>
<path opacity="0.3611" d="M1346.1 -152.177C1346.1 96.5977 625.746 38.5883 850.127 327.296C1074.51 616.003 975.957 581.043 737.267 803.015C558.619 969.165 179.36 888.477 -13.3542 693.534" stroke="#115D5D" stroke-width="1.6132" stroke-miterlimit="10"/>
<path opacity="0.3333" d="M1360.35 -148.795C1360.35 110.802 623.189 42.7924 836.628 330.067C1050.07 617.342 988.096 595.42 750.257 808.359C566.698 972.693 180.477 886.66 -10.8575 687.354" stroke="#0A5657" stroke-width="1.6132" stroke-miterlimit="10"/>
<path opacity="0.3056" d="M1374.6 -145.4C1374.6 125.006 620.651 46.9967 823.109 332.853C1025.57 618.708 1000.05 609.73 763.228 813.718C574.634 976.168 181.593 884.857 -8.38098 681.187" stroke="#084F4F" stroke-width="1.6132" stroke-miterlimit="10"/>
<path opacity="0.2778" d="M1388.85 -142.018C1388.85 139.21 618.094 51.2008 809.611 335.624C1001.13 620.048 1011.87 623.921 776.22 819.076C582.429 979.563 182.73 883.053 -5.90454 675.033" stroke="#074949" stroke-width="1.6132" stroke-miterlimit="10"/>
<path opacity="0.25" d="M1403.1 -138.636C1403.1 153.413 615.556 55.3916 796.092 338.396C976.648 621.4 1023.54 638.005 789.19 824.42C590.061 982.825 183.826 881.236 -3.42816 668.853" stroke="#074141" stroke-width="1.6132" stroke-miterlimit="10"/>
<path opacity="0.2222" d="M1417.35 -135.254C1417.35 167.604 612.999 59.5959 782.593 341.168C952.188 622.74 1035.09 651.984 802.181 829.765C597.531 985.982 184.943 879.419 -0.951721 662.673" stroke="#083A3A" stroke-width="1.6132" stroke-miterlimit="10"/>
<path opacity="0.1944" d="M1431.6 -131.872C1431.6 181.808 610.441 63.8 769.074 343.94C927.708 624.08 1046.49 665.843 815.152 835.109C604.818 989.005 186.059 877.602 1.52472 656.506" stroke="#043233" stroke-width="1.6132" stroke-miterlimit="10"/>
<path opacity="0.1667" d="M1445.83 -128.49C1445.83 195.999 607.884 67.9909 755.556 346.712C903.228 625.432 1057.82 679.583 828.123 840.454C611.943 991.87 187.175 875.785 4.0011 650.326" stroke="#042C2C" stroke-width="1.6132" stroke-miterlimit="10"/>
<path opacity="0.1389" d="M1460.08 -125.108C1460.08 210.203 605.326 72.1817 742.037 349.483C878.748 626.785 1069.07 693.189 841.094 845.799C618.885 994.562 188.271 873.968 6.47754 644.159" stroke="#082423" stroke-width="1.6132" stroke-miterlimit="10"/>
<path opacity="0.1111" d="M1474.33 -121.727C1474.33 224.393 602.768 76.3859 728.538 352.255C854.308 628.124 1080.27 706.651 854.085 851.157C625.665 997.082 189.408 872.164 8.97424 637.992" stroke="#091E1D" stroke-width="1.6132" stroke-miterlimit="10"/>
<path opacity="0.0833" d="M1488.58 -118.331C1488.58 238.611 600.231 80.6034 715.019 355.04C829.808 629.477 1091.42 719.993 867.056 856.515C632.242 999.403 190.504 870.361 11.4304 631.825" stroke="#071818" stroke-width="1.6132" stroke-miterlimit="10"/>
<path opacity="0.0556" d="M1502.83 -114.949C1502.83 252.814 597.673 84.7942 701.521 357.812C805.348 630.83 1102.58 733.149 880.047 861.86C638.676 1001.46 191.641 868.544 13.9271 625.658" stroke="#0A1212" stroke-width="1.6132" stroke-miterlimit="10"/>
<path opacity="0.0278" d="M1517.08 -111.568C1517.08 267.005 595.136 88.9983 688.002 360.584C780.868 632.17 1113.74 746.159 893.017 867.204C644.908 1003.28 192.737 866.727 16.4035 619.478" stroke="#080B0C" stroke-width="1.6132" stroke-miterlimit="10"/>
<path d="M1531.33 -108.186C1531.33 281.209 592.578 93.1891 674.503 363.356C756.428 633.522 1124.97 758.997 906.009 872.549C650.998 1004.8 193.874 864.91 18.9002 613.311" stroke="#83539D" stroke-width="2.1509" stroke-miterlimit="10"/>
<path opacity="0.9737" d="M1529.78 -97.7617C1529.78 291.633 598.424 99.2366 671.682 367.348C744.615 634.318 1105.06 764.01 903.37 878.716C670.058 1011.41 188.617 878.663 13.6226 627.05" stroke="#83519C" stroke-width="2.1226" stroke-miterlimit="10"/>
<path opacity="0.9474" d="M1528.26 -87.3508C1528.26 302.044 604.331 105.244 668.881 371.339C732.862 635.1 1084.94 769.063 900.731 884.869C688.854 1018.06 183.339 892.402 8.36523 640.79" stroke="#81509B" stroke-width="2.0943" stroke-miterlimit="10"/>
<path opacity="0.9211" d="M1526.72 -76.9265C1526.72 312.468 610.238 111.226 666.059 375.332C721.129 635.83 1064.6 774.169 898.092 891.023C707.407 1024.85 178.082 906.142 3.10803 654.53" stroke="#804F9A" stroke-width="2.066" stroke-miterlimit="10"/>
<path opacity="0.8947" d="M1525.2 -66.5024C1525.2 322.892 616.186 117.167 663.258 379.337C709.437 636.546 1044.04 779.381 895.453 897.177C725.656 1031.78 172.824 919.869 -2.14941 668.269" stroke="#7E4D9A" stroke-width="2.0377" stroke-miterlimit="10"/>
<path opacity="0.8684" d="M1523.65 -56.0913C1523.65 333.303 622.133 123.056 660.436 383.316C697.786 637.209 1023.25 784.739 892.794 903.331C743.64 1038.94 167.567 933.622 -7.40674 682.009" stroke="#7D4B98" stroke-width="2.0094" stroke-miterlimit="10"/>
<path opacity="0.8421" d="M1522.13 -45.6672C1522.13 343.728 628.162 128.931 657.635 387.321C686.216 637.859 1002.33 790.323 890.176 909.498C761.361 1046.37 162.289 947.362 -12.6842 695.749" stroke="#7B4997" stroke-width="1.9811" stroke-miterlimit="10"/>
<path opacity="0.8158" d="M1520.59 -35.2432C1520.59 354.152 634.211 134.766 654.814 391.313C674.666 638.469 981.296 796.158 887.517 915.665C778.879 1054.12 157.032 961.115 -17.9416 709.502" stroke="#784897" stroke-width="1.9528" stroke-miterlimit="10"/>
<path opacity="0.7895" d="M1519.07 -24.8323C1519.07 364.562 640.321 140.549 652.013 395.304C663.197 639.052 960.267 802.285 884.898 921.818C796.335 1062.25 151.795 974.841 -23.1786 723.242" stroke="#764695" stroke-width="1.9245" stroke-miterlimit="10"/>
<path opacity="0.7632" d="M1517.52 -14.408C1517.52 374.987 646.471 146.318 649.191 399.297C651.789 639.597 939.38 808.744 882.239 927.972C813.792 1070.79 146.497 988.581 -28.4765 736.982" stroke="#754494" stroke-width="1.8962" stroke-miterlimit="10"/>
<path opacity="0.7368" d="M1516 -3.98389C1516 385.411 652.703 152.047 646.39 403.302C640.463 640.14 918.797 815.547 879.621 934.139C831.513 1079.76 141.26 1002.33 -33.7136 750.721" stroke="#734092" stroke-width="1.8679" stroke-miterlimit="10"/>
<path opacity="0.7105" d="M1514.46 6.427C1514.46 395.822 658.955 157.75 643.589 407.28C629.197 640.631 898.64 822.603 876.982 940.28C849.599 1089.06 136.003 1016.06 -38.9709 764.448" stroke="#703D90" stroke-width="1.8396" stroke-miterlimit="10"/>
<path opacity="0.6842" d="M1512.94 16.8513C1512.94 406.246 665.329 163.426 640.788 411.286C618.033 641.122 879.032 829.897 874.363 946.46C868.253 1098.67 130.766 1029.83 -44.2079 778.214" stroke="#6D398E" stroke-width="1.8113" stroke-miterlimit="10"/>
<path opacity="0.6579" d="M1511.39 27.2622C1511.39 416.657 671.743 169.076 637.966 415.264C606.909 641.559 859.971 837.271 871.704 952.6C887.557 1108.39 125.488 1043.54 -49.4857 791.941" stroke="#6B348B" stroke-width="1.783" stroke-miterlimit="10"/>
<path opacity="0.6316" d="M1509.87 37.6865C1509.87 427.081 678.259 174.713 635.165 419.257C595.887 642.01 841.479 844.685 869.065 958.754C907.612 1118.15 120.231 1057.28 -54.7428 805.68" stroke="#67328A" stroke-width="1.7547" stroke-miterlimit="10"/>
<path opacity="0.6053" d="M1508.33 48.1106C1508.33 437.505 684.835 180.336 632.343 423.262C584.966 642.448 823.475 852.019 866.426 964.921C928.378 1127.81 114.973 1071.03 -60.0003 819.42" stroke="#65328A" stroke-width="1.7264" stroke-miterlimit="10"/>
<path opacity="0.5789" d="M1506.79 58.5215C1506.79 447.916 691.513 185.933 629.522 427.24C574.127 642.859 805.876 859.18 863.767 971.061C949.752 1137.22 109.675 1084.76 -65.2983 833.147" stroke="#602F88" stroke-width="1.6981" stroke-miterlimit="10"/>
<path opacity="0.5526" d="M1505.26 68.9456C1505.26 458.34 698.313 191.542 626.72 431.245C563.389 643.296 788.581 866.183 861.148 977.228C971.694 1146.39 104.438 1098.51 -70.5353 846.899" stroke="#5D2D86" stroke-width="1.6698" stroke-miterlimit="10"/>
<path opacity="0.5263" d="M1503.72 79.3696C1503.72 468.764 705.174 197.152 623.899 435.237C552.732 643.721 771.429 872.973 858.489 983.395C993.962 1155.22 99.1607 1112.25 -75.813 860.652" stroke="#5A2B82" stroke-width="1.6415" stroke-miterlimit="10"/>
<path opacity="0.5" d="M1502.2 89.7808C1502.2 479.176 712.178 202.749 621.098 439.229C542.177 644.145 754.419 879.565 855.871 989.549C1016.53 1163.74 93.9238 1125.99 -81.0499 874.379" stroke="#562A7B" stroke-width="1.6132" stroke-miterlimit="10"/>
<path opacity="0.4737" d="M1500.66 100.205C1500.66 489.6 719.242 208.372 618.276 443.221C531.723 644.583 737.409 885.957 853.232 995.703C1039.21 1171.93 88.6664 1139.73 -86.3073 888.119" stroke="#522673" stroke-width="1.5849" stroke-miterlimit="10"/>
<path opacity="0.4474" d="M1499.13 110.629C1499.13 500.024 726.447 214.009 615.475 447.227C521.351 645.047 720.358 892.19 850.593 1001.87C1061.94 1179.88 83.4091 1153.48 -91.5646 901.872" stroke="#4D266E" stroke-width="1.5566" stroke-miterlimit="10"/>
<path opacity="0.4211" d="M1497.59 121.04C1497.59 510.435 733.735 219.659 612.654 451.205C511.08 645.511 703.267 898.251 847.955 1008.02C1084.64 1187.57 78.1519 1167.21 -96.8218 915.612" stroke="#482567" stroke-width="1.5283" stroke-miterlimit="10"/>
<path opacity="0.3947" d="M1496.07 131.464C1496.07 520.859 741.143 225.348 609.873 455.21C500.89 646.015 686.094 904.219 845.336 1014.19C1107.29 1195.09 72.8943 1180.96 -102.079 929.365" stroke="#442562" stroke-width="1.5" stroke-miterlimit="10"/>
<path opacity="0.3684" d="M1494.53 141.888C1494.53 531.283 748.654 231.077 607.051 459.202C490.761 646.546 668.8 910.068 842.677 1020.34C1129.8 1202.44 67.6168 1194.7 -107.357 943.091" stroke="#40235D" stroke-width="1.4717" stroke-miterlimit="10"/>
<path opacity="0.3421" d="M1493 152.299C1493 541.694 756.266 236.847 604.25 463.194C480.733 647.103 651.424 915.837 840.038 1026.5C1152.21 1209.65 62.3595 1208.44 -112.614 956.831" stroke="#392255" stroke-width="1.4434" stroke-miterlimit="10"/>
<path opacity="0.3158" d="M1491.46 162.723C1491.46 552.118 763.959 242.669 601.429 467.186C470.746 647.7 633.947 921.527 837.4 1032.65C1174.5 1216.77 57.1023 1222.18 -117.871 970.571" stroke="#352050" stroke-width="1.4151" stroke-miterlimit="10"/>
<path opacity="0.2895" d="M1489.94 173.147C1489.94 562.542 771.774 248.53 598.627 471.178C460.861 648.336 616.409 927.176 834.761 1038.81C1196.66 1223.83 51.8448 1235.91 -123.129 984.31" stroke="#2F1E49" stroke-width="1.3868" stroke-miterlimit="10"/>
<path opacity="0.2632" d="M1488.39 183.559C1488.39 572.953 779.65 254.459 595.806 475.17C450.996 649.013 598.749 932.786 832.122 1044.96C1218.73 1230.82 46.5875 1249.66 -128.386 998.05" stroke="#2D1B42" stroke-width="1.3585" stroke-miterlimit="10"/>
<path opacity="0.2368" d="M1486.87 193.983C1486.87 583.377 787.627 260.453 593.005 479.162C441.212 649.742 581.049 938.356 829.483 1051.13C1240.67 1237.77 41.3302 1263.4 -133.643 1011.79" stroke="#28183C" stroke-width="1.3302" stroke-miterlimit="10"/>
<path opacity="0.2105" d="M1485.33 204.407C1485.33 593.802 795.645 266.514 590.183 483.168C431.448 650.538 563.247 943.914 826.844 1057.29C1262.51 1244.69 36.0729 1277.16 -138.921 1025.54" stroke="#241535" stroke-width="1.3019" stroke-miterlimit="10"/>
<path opacity="0.1842" d="M1483.81 214.818C1483.81 604.213 803.765 272.642 587.382 487.146C421.746 651.36 545.384 949.417 824.205 1063.43C1284.25 1251.56 30.7951 1290.87 -144.179 1039.27" stroke="#22122E" stroke-width="1.2736" stroke-miterlimit="10"/>
<path opacity="0.1579" d="M1482.26 225.242C1482.26 614.637 811.925 278.848 584.56 491.152C412.043 652.249 527.461 954.935 821.566 1069.6C1305.91 1258.44 25.5379 1304.62 -149.436 1053.02" stroke="#1D1227" stroke-width="1.2453" stroke-miterlimit="10"/>
<path opacity="0.1316" d="M1480.74 235.666C1480.74 625.061 820.125 285.134 581.759 495.143C402.381 653.19 509.496 960.438 818.928 1075.75C1327.51 1265.31 20.2805 1318.36 -154.693 1066.76" stroke="#191122" stroke-width="1.217" stroke-miterlimit="10"/>
<path opacity="0.1053" d="M1479.2 246.077C1479.2 635.472 828.367 291.474 578.938 499.135C392.698 654.185 491.471 965.916 816.269 1081.92C1348.98 1272.17 15.0029 1332.11 -159.971 1080.5" stroke="#160E1C" stroke-width="1.1887" stroke-miterlimit="10"/>
<path opacity="0.0789" d="M1477.68 256.501C1477.68 645.896 836.649 297.906 576.157 503.127C383.077 655.233 473.446 971.393 813.671 1088.07C1370.48 1279.03 9.78622 1345.85 -165.187 1094.24" stroke="#120C16" stroke-width="1.1604" stroke-miterlimit="10"/>
<path opacity="0.0526" d="M1476.13 266.925C1476.13 656.32 844.951 304.418 573.335 507.132C373.395 656.333 455.34 976.87 811.011 1094.23C1391.85 1285.87 4.50867 1359.58 -170.465 1107.98" stroke="#0F0C11" stroke-width="1.1321" stroke-miterlimit="10"/>
<path opacity="0.0263" d="M1474.61 277.336C1474.61 666.731 853.253 310.983 570.534 511.111C363.753 657.487 437.213 982.348 808.393 1100.38C1413.21 1292.73 -0.728448 1373.32 -175.702 1121.72" stroke="#0A090C" stroke-width="1.1038" stroke-miterlimit="10"/>
</svg>
