<svg width="31" height="30" viewBox="0 0 31 30" fill="none" xmlns="http://www.w3.org/2000/svg">
<path d="M0.920413 14.9202C0.915745 6.81336 7.57658 0.267662 15.8077 0.231723C24.0623 0.195801 30.8236 6.73389 30.8947 14.8928C30.964 22.968 24.3447 29.6394 15.9295 29.642C7.80585 29.6448 0.972627 23.2092 0.920413 14.9202ZM26.0992 23.3358C26.0978 23.3387 26.1065 23.317 26.1198 23.3012C26.9228 22.3494 27.5872 21.3138 28.0968 20.1827C28.7588 18.7106 29.1305 17.169 29.2253 15.5636C29.2692 14.8295 29.2277 14.0954 29.1346 13.3627C28.9741 12.1068 28.6444 10.897 28.1175 9.74202C26.8285 6.91741 24.7799 4.79022 21.9881 3.35323C20.5008 2.58771 18.9171 2.1357 17.2516 1.96686C16.2945 1.86935 15.3361 1.87732 14.3779 1.98645C13.2373 2.11713 12.1308 2.37355 11.0688 2.79041C8.10067 3.95298 5.83815 5.91087 4.27678 8.64526C3.40446 10.1706 2.89164 11.8148 2.70294 13.5545C2.59634 14.5327 2.6134 15.5096 2.73204 16.488C2.87471 17.663 3.16304 18.8004 3.63234 19.8889C5.05502 23.1862 7.45595 25.5391 10.7969 26.9721C10.8529 26.9967 10.9265 27.0069 10.9854 26.9954C12.0139 26.775 13.0321 26.5229 14.0132 26.1421C14.6706 25.8868 15.3089 25.5982 15.8377 25.1246C16.1477 24.8474 16.3634 24.5224 16.3373 24.086C16.3127 23.6727 16.1044 23.3401 15.8078 23.0798C15.4331 22.7501 15.0407 22.4275 14.6146 22.1685C13.5089 21.4987 12.3811 20.8649 11.2607 20.2196C10.2449 19.635 9.22477 19.0592 8.21489 18.466C8.01881 18.3517 7.83735 18.1926 7.69412 18.0176C7.47117 17.7458 7.5117 17.4568 7.79091 17.2431C7.94521 17.1262 8.12902 17.0353 8.31436 16.9704C9.53528 16.5435 10.7844 16.2034 12.0513 15.9427C13.2035 15.7051 14.3676 15.5095 15.5302 15.3282C16.3175 15.206 17.1124 15.1357 17.9057 15.0539C18.5003 14.9922 19.0979 14.9435 19.6955 14.9021C20.2269 14.8663 20.7598 14.8508 21.2912 14.8266C21.3972 14.8224 21.4797 14.8571 21.4903 14.9756C21.4995 15.0927 21.4289 15.1345 21.32 15.1503C21.0683 15.1863 20.8182 15.2338 20.5665 15.2712C19.1654 15.4811 17.7674 15.7128 16.3976 16.0687C15.9033 16.197 15.4105 16.3585 14.9472 16.5706C14.4707 16.7884 14.4894 17.1988 14.9493 17.4578C14.9788 17.4738 15.0083 17.4897 15.0378 17.5027C15.673 17.7878 16.3097 18.073 16.9449 18.3581C18.9625 19.2642 20.9845 20.1631 22.9978 21.0778C23.7376 21.4151 24.4819 21.7581 25.0898 22.3091C25.438 22.6244 25.7509 22.9786 26.0992 23.3358Z" fill="#75ECF9"/>
<path d="M22.3795 9.34283C22.5907 9.04967 22.8242 8.78543 22.922 8.44306C23.0096 8.13825 22.9015 7.88531 22.6272 7.69294C22.4562 7.57289 22.291 7.44274 22.1273 7.31258C22.0285 7.23448 22.0106 7.14777 22.0825 7.02934C22.2482 6.75349 22.4065 6.47185 22.5545 6.18731C22.6204 6.06166 22.6998 6.00536 22.8515 6.04882C22.9523 6.35377 23.1883 6.56489 23.4361 6.77024C23.5792 6.88883 23.7178 7.01897 23.8374 7.1621C24.1238 7.5033 24.0732 7.88183 23.9313 8.25884C23.747 8.75142 23.43 9.16298 23.0939 9.56297C23.0235 9.64673 22.9515 9.72759 22.8546 9.83877C23.0036 9.97326 23.1599 10.089 23.2839 10.2321C23.588 10.5849 23.8774 10.9506 24.1741 11.3106C24.2435 11.3959 24.2526 11.4826 24.2027 11.5808C24.0665 11.8481 23.9405 12.1196 23.7925 12.381C23.7602 12.4373 23.6572 12.4546 23.5734 12.4964C23.1924 11.3403 22.3339 10.5897 21.4901 9.82912C21.1301 9.50376 20.7643 9.18561 20.4 8.86458C20.3602 8.82988 20.3159 8.7995 20.2451 8.74455C20.2477 9.1968 20.0469 9.55788 19.908 9.93923C19.8217 10.1747 19.7575 10.4159 19.8155 10.6732C19.8795 10.9593 20.0565 11.1169 20.3568 11.1345C20.4452 11.1389 20.5349 11.1346 20.6233 11.1303C20.7086 11.1246 20.794 11.1131 20.9073 11.1016C20.786 11.4787 20.6764 11.8311 20.5551 12.1793C20.5419 12.2183 20.4611 12.2572 20.4096 12.2586C20.1343 12.2686 19.8547 12.2915 19.5823 12.2609C19.1715 12.2144 18.925 11.9195 18.9093 11.5134C18.8906 11.0742 19.0339 10.6683 19.1595 10.2566C19.2851 9.84197 19.4239 9.42594 19.498 8.99975C19.6243 8.27017 19.3461 7.65156 18.834 7.12958C18.7219 7.01535 18.7011 6.93009 18.7803 6.79577C18.9122 6.57624 19.0338 6.34948 19.1511 6.12128C19.2009 6.0245 19.2773 5.99133 19.3657 6.02029C19.4173 6.03766 19.4719 6.10272 19.4897 6.1562C19.6098 6.53485 19.8226 6.85866 20.1015 7.13772C20.5559 7.59319 21.0221 8.03856 21.4854 8.48681C21.7761 8.77166 22.0726 9.05074 22.3795 9.34283Z" fill="#75ECF9"/>
<path d="M17.0509 11.1189C16.9959 11.4931 16.9438 11.8643 16.8814 12.2327C16.8756 12.2674 16.7977 12.3107 16.7506 12.3135C16.5843 12.3235 16.4179 12.3176 16.2516 12.3175C15.3421 12.3212 14.431 12.3162 13.5214 12.3329C13.1844 12.3384 12.849 12.396 12.512 12.4261C12.306 12.4447 12.2779 12.4071 12.3304 12.2049C12.399 11.942 12.4778 11.6805 12.5346 11.4162C12.5666 11.2688 12.643 11.2039 12.7902 11.1967C13.1772 11.1782 13.5642 11.1467 13.9528 11.1384C14.4282 11.1286 14.905 11.1361 15.3893 11.1365C15.3965 11.0932 15.4038 11.0628 15.4052 11.0325C15.4269 10.2538 15.4501 9.47648 15.4659 8.69776C15.4699 8.52583 15.4606 8.34811 15.4234 8.18049C15.3832 7.99842 15.2519 7.86829 15.0547 7.85081C14.7794 7.8275 14.5012 7.82874 14.2245 7.81554C13.8153 7.79646 13.4017 7.80194 12.9998 7.74097C12.7936 7.71048 12.6049 7.56442 12.4133 7.45881C12.3352 7.41541 12.3174 7.34316 12.3569 7.24783C12.5032 6.89686 12.6378 6.54009 12.7812 6.18622C12.8294 6.06779 13.034 6.04337 13.1019 6.15178C13.3309 6.51748 13.6859 6.6102 14.0877 6.61627C14.5263 6.62236 14.9663 6.60823 15.4006 6.64611C16.0395 6.70148 16.3818 7.03691 16.4012 7.78677C16.4143 8.31124 16.3287 8.83708 16.302 9.36441C16.2823 9.73859 16.2493 10.1157 16.287 10.4855C16.3352 10.9624 16.49 11.0723 16.9758 11.1044C16.9979 11.1073 17.0185 11.1131 17.0509 11.1189Z" fill="#75ECF9"/>
<path d="M7.53667 12.4968C7.58418 12.0621 7.62293 11.6562 7.67788 11.2532C7.68655 11.1911 7.7614 11.1146 7.82458 11.0843C8.33886 10.8391 8.78674 10.5101 9.17559 10.0987C9.34874 9.91534 9.47478 9.72042 9.47271 9.46619C9.47056 9.17873 9.47428 8.88983 9.44124 8.60524C9.3872 8.14585 9.07916 7.89862 8.65661 7.74521C8.38865 7.64824 8.12358 7.53104 7.87612 7.39075C7.65074 7.26203 7.66394 7.24326 7.76489 7.01221C7.89803 6.70896 8.02675 6.40138 8.16432 6.09957C8.18481 6.05625 8.24353 6.00718 8.28912 6.00288C8.33619 5.99858 8.41129 6.03186 8.43345 6.07087C8.59152 6.35266 8.85223 6.4973 9.14083 6.61017C9.36169 6.697 9.58109 6.78672 9.80488 6.86777C10.1082 6.97776 10.2367 7.21331 10.2712 7.50512C10.2907 7.66692 10.2941 7.83304 10.2798 7.99481C10.1839 9.11857 10.3203 10.2208 10.6348 11.303C10.7104 11.563 10.7124 11.7768 10.4937 11.9746C10.3689 12.0871 10.284 12.2402 10.168 12.3643C10.127 12.4077 10.0461 12.4365 9.9858 12.435C9.95196 12.4335 9.90324 12.3584 9.89135 12.3093C9.75332 11.7935 9.63735 11.2734 9.63019 10.736C9.63008 10.6927 9.62703 10.6479 9.61223 10.6074C9.57521 10.5063 9.50605 10.4961 9.43857 10.5755C9.39749 10.6232 9.38 10.6911 9.35219 10.7488C9.1941 11.0766 9.05957 11.4189 8.87054 11.7278C8.62144 12.1365 8.23662 12.3861 7.75434 12.4782C7.69258 12.4912 7.62638 12.4897 7.53667 12.4968Z" fill="#75ECF9"/>
</svg>
