<svg fill="currentColor" width="1em" height="1em" viewBox="0 0 46 26" xmlns="http://www.w3.org/2000/svg">
    <path fill-rule="evenodd"
          clip-rule="evenodd"
          d="M22.8049 25.4955H25.5675C25.5675 25.4955 26.3963 25.3633 26.8107 24.9666C27.2251 24.5699 27.2251 23.7766 27.2251 23.7766C27.2251 23.7766 27.2251 20.3388 28.8827 19.8099C30.5403 19.281 32.7505 23.2477 34.9606 24.7021C36.6182 25.8921 37.8614 25.6277 37.8614 25.6277L43.9393 25.4955C43.9393 25.4955 47.1163 25.3633 45.5969 22.851C45.4587 22.7188 44.7681 21.1321 41.0385 17.8266C37.1707 14.3888 37.7233 15.0499 42.2817 9.09992C45.0443 5.52992 46.1494 3.41436 45.8731 2.35658C45.5969 1.43103 43.5249 1.69547 43.5249 1.69547H36.6182C36.6182 1.69547 36.0657 1.56325 35.7894 1.82769C35.375 2.09214 35.2369 2.48881 35.2369 2.48881C35.2369 2.48881 34.1318 5.26547 32.7505 7.64547C29.7115 12.5377 28.4683 12.8021 28.0539 12.5377C26.9489 11.8766 27.2251 9.62881 27.2251 8.17436C27.2251 3.41436 28.0539 1.43103 25.7057 0.902138C25.015 0.769916 24.4625 0.637695 22.5286 0.637695C20.0422 0.637695 17.9702 0.637695 16.8651 1.16658C16.0363 1.56325 15.4838 2.35658 15.8982 2.35658C16.3126 2.35658 17.4177 2.62103 17.9702 3.28214C18.5227 4.47214 18.5227 6.45547 18.5227 6.45547C18.5227 6.45547 18.9371 12.141 17.5558 12.8021C16.5889 13.331 15.3457 12.2733 12.583 7.7777C11.2017 5.52992 10.0966 2.88547 10.0966 2.88547C10.0966 2.88547 9.95848 2.35658 9.54408 2.09214C9.12968 1.8277 8.43901 1.69547 8.43901 1.69547H1.94675C1.94675 1.69547 0.979812 1.69547 0.565412 2.09214C0.289145 2.48881 0.565412 3.14992 0.565412 3.14992C0.565412 3.14992 5.67635 14.521 11.4779 20.3388C16.8651 25.8921 22.8049 25.4955 22.8049 25.4955Z"
          fill="currentColor" />
</svg>
