<svg width="1546" height="197" viewBox="0 0 1546 197" fill="none" xmlns="http://www.w3.org/2000/svg">
<path d="M-41.766 118.801C-70.2948 98.8533 -111.602 100.1 -128.69 103.217L-149.492 204.902H1569.67V54.5171C1562.74 48.2835 1538.76 31.6866 1498.35 15.1676C1484.23 9.39812 1462.53 -12.9821 1397.31 19.4532C1362.18 36.9223 1348.9 50.275 1304.32 61.1838C1259.74 72.0925 1237.67 60.4181 1177.88 44.8858C1135.06 33.7642 1090.21 37.0939 1054.54 44.8858C1018.88 52.6778 992.878 73.2178 941.886 92.3081C906.866 105.419 868.335 118.801 842.332 118.801C791.812 118.801 734.289 105.181 698.628 94.2727C662.967 83.3639 620.619 75.1824 548.554 88.0391C476.489 100.896 418.841 140.62 395.067 148.412C371.293 156.204 337.876 146.852 294.786 118.801C263.535 98.457 232.379 92.3081 206.376 92.3081C180.373 92.3081 155.856 93.8665 101.621 129.71C47.3868 165.553 61.2169 158.981 28.5275 157.423C-4.16179 155.864 -6.10486 143.735 -41.766 118.801Z" fill="url(#paint0_linear)" fill-opacity="0.2" stroke="#00EFFF" stroke-width="3" stroke-linecap="round" stroke-linejoin="round"/>
<defs>
<linearGradient id="paint0_linear" x1="710.089" y1="2.27101" x2="710.227" y2="283.614" gradientUnits="userSpaceOnUse">
<stop offset="0.416667" stop-color="#70EFFD"/>
<stop offset="1" stop-opacity="0"/>
</linearGradient>
</defs>
</svg>
