<svg width="1em" height="1em" viewBox="0 0 81 81" fill="currentColor" xmlns="http://www.w3.org/2000/svg">
    <path d="M0 40.4823C0.0397835 18.156 18.0816 0.115964 40.3246 0.000552136C62.6312 -0.11486 80.86 17.8775 80.9992 40.347C81.1345 62.5856 63.2041 80.9719 40.4638 80.9958C18.5113 81.0197 0.0875237 63.3099 0 40.4823ZM67.9861 63.6084C67.9821 63.6164 68.0059 63.5567 68.0417 63.5129C70.2179 60.8903 72.0201 58.0368 73.4046 54.9207C75.2028 50.8654 76.2173 46.619 76.4838 42.1975C76.6071 40.1758 76.4997 38.1541 76.2531 36.1364C75.8274 32.678 74.9442 29.347 73.5279 26.1672C70.0628 18.3908 64.5408 12.5367 57.0058 8.58481C52.9916 6.47954 48.7149 5.23786 44.2154 4.77622C41.6295 4.50958 39.0396 4.53345 36.4497 4.83591C33.3664 5.19807 30.3747 5.90646 27.5023 7.0566C19.474 10.2642 13.3474 15.6608 9.11042 23.1944C6.74331 27.3969 5.3469 31.9259 4.82574 36.7175C4.53134 39.4117 4.57113 42.102 4.88542 44.7963C5.26336 48.0318 6.03516 51.1638 7.2963 54.1606C11.1195 63.2383 17.5923 69.7133 26.6112 73.6532C26.7624 73.7209 26.9613 73.7487 27.1204 73.7169C29.9013 73.108 32.6543 72.4116 35.3079 71.3609C37.0862 70.6565 38.8128 69.8606 40.245 68.5552C41.0844 67.7911 41.6693 66.8957 41.6016 65.6938C41.538 64.5556 40.977 63.6403 40.1774 62.9239C39.1669 62.0165 38.1086 61.1291 36.9589 60.4167C33.9751 58.5741 30.9317 56.831 27.9081 55.056C25.1671 53.4482 22.414 51.8643 19.6889 50.2326C19.1597 49.9182 18.6704 49.4804 18.2845 48.9989C17.6838 48.2507 17.7952 47.4547 18.5511 46.8657C18.9688 46.5434 19.4661 46.2927 19.9673 46.1136C23.2694 44.9356 26.647 43.9964 30.0724 43.276C33.1874 42.6194 36.3343 42.0781 39.4772 41.5767C41.6056 41.2384 43.7539 41.0434 45.8982 40.8166C47.5055 40.6454 49.1207 40.5101 50.7359 40.3947C52.1721 40.2952 53.6123 40.2514 55.0485 40.1838C55.3349 40.1718 55.5577 40.2674 55.5855 40.5937C55.6094 40.9161 55.4184 41.0315 55.124 41.0752C54.4437 41.1747 53.7674 41.3061 53.0871 41.4095C49.2997 41.9906 45.5203 42.6313 41.8165 43.6143C40.4797 43.9685 39.147 44.4142 37.8938 44.9992C36.6048 45.6002 36.6526 46.7304 37.8938 47.4428C37.9734 47.4866 38.0529 47.5303 38.1325 47.5662C39.8472 48.3502 41.5658 49.1342 43.2805 49.9182C48.7269 52.4095 54.1852 54.8809 59.6196 57.3961C61.6167 58.3234 63.6258 59.2665 65.2649 60.7828C66.2038 61.6504 67.0472 62.6254 67.9861 63.6084Z"
          fill="#75ECF9"/>
    <path d="M58.0004 25.0813C58.5733 24.2734 59.2058 23.5451 59.4724 22.6019C59.7111 21.7622 59.4207 21.0658 58.6807 20.5365C58.2192 20.2062 57.7736 19.848 57.332 19.4898C57.0655 19.2749 57.0177 19.0361 57.2127 18.7098C57.6622 17.9497 58.0919 17.1736 58.4937 16.3896C58.6727 16.0434 58.8876 15.8882 59.2973 16.0076C59.5679 16.8473 60.2044 17.4283 60.8728 17.9934C61.2587 18.3198 61.6326 18.6779 61.9549 19.0719C62.7267 20.0111 62.5874 21.0538 62.2015 22.0925C61.7003 23.4496 60.8409 24.5838 59.9299 25.6862C59.7389 25.9171 59.544 26.1399 59.2814 26.4464C59.6832 26.8165 60.1049 27.1348 60.4391 27.5288C61.2587 28.4999 62.0384 29.5068 62.8381 30.4977C63.0251 30.7325 63.0489 30.9713 62.9137 31.2419C62.5437 31.9782 62.2015 32.7264 61.7997 33.4467C61.7122 33.6019 61.4337 33.6496 61.207 33.7651C60.1845 30.5813 57.8691 28.5158 55.5935 26.4225C54.6228 25.527 53.6362 24.6515 52.6535 23.768C52.5461 23.6725 52.4267 23.5889 52.2358 23.4377C52.2397 24.6833 51.6947 25.6783 51.3168 26.7289C51.0821 27.3776 50.907 28.0422 51.0622 28.7506C51.2332 29.5386 51.7106 29.9724 52.5222 30.0201C52.7609 30.0321 53.0036 30.0201 53.2423 30.0082C53.473 29.9923 53.7038 29.9604 54.0101 29.9286C53.6799 30.9673 53.3815 31.9384 53.0513 32.8975C53.0155 33.0049 52.7967 33.1124 52.6575 33.1164C51.9135 33.1442 51.1576 33.2079 50.4216 33.1243C49.3117 32.997 48.6473 32.1851 48.6075 31.0668C48.5598 29.857 48.9497 28.7387 49.2918 27.6045C49.6339 26.4623 50.0119 25.3161 50.2148 24.1421C50.5609 22.1323 49.813 20.429 48.4325 18.9923C48.1301 18.6779 48.0744 18.4431 48.2892 18.073C48.6473 17.4681 48.9775 16.8433 49.2958 16.2145C49.431 15.9479 49.6379 15.8563 49.8766 15.9359C50.0159 15.9837 50.163 16.1628 50.2108 16.31C50.533 17.3527 51.1059 18.2442 51.8578 19.0122C53.0832 20.2659 54.3403 21.4916 55.5895 22.7253C56.3733 23.5093 57.1729 24.2774 58.0004 25.0813Z"
          fill="#75ECF9"/>
    <path d="M43.6067 29.9681C43.4555 30.9989 43.3123 32.0216 43.1412 33.0365C43.1253 33.132 42.9145 33.2514 42.7872 33.2593C42.3376 33.2872 41.8881 33.2713 41.4385 33.2713C38.9799 33.2832 36.5173 33.2713 34.0587 33.319C33.1476 33.3349 32.2406 33.4941 31.3295 33.5777C30.7725 33.6294 30.697 33.526 30.8402 32.9688C31.0272 32.2445 31.242 31.5242 31.3971 30.7959C31.4847 30.39 31.6915 30.2109 32.0894 30.191C33.1357 30.1392 34.182 30.0517 35.2323 30.0278C36.5173 29.9999 37.8063 30.0198 39.1152 30.0198C39.135 29.9004 39.1549 29.8169 39.1589 29.7333C39.2226 27.5882 39.2902 25.4471 39.3379 23.3021C39.3499 22.8285 39.326 22.339 39.2265 21.8773C39.1191 21.3759 38.7651 21.0177 38.232 20.97C37.488 20.9063 36.7361 20.9103 35.9882 20.8744C34.8822 20.8227 33.7643 20.8386 32.6782 20.6715C32.1212 20.5879 31.612 20.186 31.0948 19.8954C30.8839 19.776 30.8362 19.5771 30.9436 19.3144C31.3415 18.3473 31.7075 17.3643 32.0973 16.3893C32.2286 16.063 32.7816 15.9953 32.9646 16.2938C33.5813 17.3007 34.54 17.5554 35.6261 17.5713C36.8117 17.5872 38.0012 17.5474 39.1748 17.6509C40.9014 17.8021 41.8244 18.7254 41.8721 20.7909C41.904 22.2355 41.6693 23.6841 41.5937 25.1367C41.538 26.1675 41.4465 27.2062 41.5459 28.225C41.6732 29.5383 42.091 29.8408 43.4038 29.9283C43.4635 29.9363 43.5192 29.9522 43.6067 29.9681Z"
          fill="#75ECF9"/>
    <path d="M17.8946 33.773C18.0259 32.5751 18.1333 31.4568 18.2845 30.3465C18.3084 30.1754 18.5113 29.9644 18.6823 29.8809C20.0748 29.2043 21.2882 28.2969 22.3424 27.1627C22.8119 26.6573 23.154 26.12 23.15 25.4196C23.146 24.6276 23.158 23.8317 23.0705 23.0477C22.9272 21.7821 22.0958 21.1016 20.954 20.6797C20.2299 20.4131 19.5138 20.0907 18.8454 19.7047C18.2368 19.3505 18.2726 19.2988 18.5471 18.662C18.9091 17.8263 19.2592 16.9786 19.6332 16.1468C19.6889 16.0274 19.848 15.8921 19.9713 15.8802C20.0986 15.8683 20.3015 15.9598 20.3612 16.0672C20.7869 16.8433 21.4911 17.2413 22.2708 17.5517C22.8676 17.7905 23.4603 18.0372 24.065 18.2601C24.8846 18.5625 25.2307 19.2112 25.3222 20.0151C25.3739 20.4609 25.3819 20.9185 25.3421 21.3643C25.0755 24.4605 25.4376 27.497 26.281 30.4778C26.4839 31.1942 26.4879 31.7832 25.8951 32.3284C25.5569 32.6388 25.3262 33.0606 25.0119 33.4029C24.9005 33.5223 24.6817 33.6019 24.5186 33.5979C24.4271 33.5939 24.2958 33.387 24.264 33.2517C23.894 31.8309 23.5837 30.3982 23.5678 28.9178C23.5678 28.7984 23.5598 28.675 23.52 28.5636C23.4206 28.285 23.2336 28.2571 23.0506 28.476C22.9392 28.6073 22.8914 28.7944 22.8158 28.9536C22.3862 29.857 22.0202 30.8002 21.507 31.6518C20.8306 32.7781 19.7883 33.4666 18.4834 33.7213C18.3163 33.7571 18.1373 33.7531 17.8946 33.773Z"
          fill="#75ECF9"/>
</svg>